<?xml version="1.0" standalone="no"?>
<!DOCTYPE svg PUBLIC "-//W3C//DTD SVG 20010904//EN"
 "http://www.w3.org/TR/2001/REC-SVG-20010904/DTD/svg10.dtd">
<svg version="1.0" xmlns="http://www.w3.org/2000/svg"
 width="696.000000pt" height="484.000000pt" viewBox="0 0 696.000000 484.000000"
 preserveAspectRatio="xMidYMid meet">

<g transform="translate(0.000000,484.000000) scale(0.100000,-0.100000)"
fill="#000000" stroke="none">
<path d="M0 2420 l0 -2420 3480 0 3480 0 0 2420 0 2420 -3480 0 -3480 0 0
-2420z m3453 2220 c14 -11 32 -39 41 -63 14 -38 43 -264 34 -272 -1 -1 -37 -6
-79 -10 l-76 -6 -7 97 c-9 116 -16 134 -57 134 -45 0 -54 -29 -41 -142 6 -51
7 -96 4 -100 -4 -3 -38 -8 -77 -10 l-70 -3 -8 95 c-10 126 -34 162 -82 126
-22 -16 -25 -58 -12 -168 l7 -66 -75 -7 c-42 -4 -79 -5 -82 -1 -3 3 -10 52
-14 108 -5 57 -13 134 -19 172 -6 38 -9 70 -7 73 2 2 33 6 69 10 l65 6 16 -44
c8 -24 16 -36 16 -27 1 27 49 76 86 88 49 16 107 -2 139 -43 16 -19 26 -26 26
-17 1 18 26 50 60 73 35 24 110 23 143 -3z m1013 -26 c30 -13 54 -28 54 -33 0
-5 -14 -41 -31 -81 -17 -40 -29 -73 -27 -75 6 -6 200 -85 208 -85 4 0 22 36
40 80 28 70 35 80 52 74 33 -10 128 -53 128 -58 0 -2 -22 -55 -48 -118 -27
-62 -66 -158 -87 -213 -21 -55 -41 -103 -44 -107 -3 -3 -37 6 -76 22 -48 19
-69 33 -67 43 1 9 16 47 31 86 l29 70 -101 40 c-56 23 -106 41 -110 41 -7 0
-19 -25 -62 -127 l-14 -32 -74 30 -74 30 52 122 c29 67 70 168 91 225 42 114
32 109 130 66z m-538 1 c75 -30 134 -125 118 -190 -6 -22 -11 -26 -34 -21 -64
12 -252 29 -259 23 -3 -4 4 -18 17 -32 27 -29 93 -35 125 -11 17 12 26 11 77
-15 52 -26 57 -32 48 -49 -31 -59 -181 -83 -286 -47 -81 28 -134 100 -134 181
1 69 63 156 125 176 42 13 153 5 203 -15z m-1260 -125 c38 -23 66 -66 88 -135
9 -27 26 -59 39 -70 26 -24 37 -61 21 -74 -6 -5 -32 -16 -58 -25 -57 -19 -90
-10 -111 30 l-14 27 -6 -33 c-14 -69 -115 -130 -193 -115 -44 8 -74 47 -74 98
0 32 6 46 35 73 l35 33 -55 11 -55 11 17 32 c9 18 25 45 37 60 59 81 219 122
294 77z m-522 -113 c3 -3 -11 -34 -32 -70 l-37 -65 -53 -4 c-69 -6 -128 -44
-144 -93 -23 -68 33 -145 105 -145 34 0 100 34 119 62 27 38 18 40 -28 8 -25
-16 -47 -30 -50 -30 -10 0 -58 89 -52 98 7 12 221 142 232 142 10 0 144 -212
144 -227 0 -8 -85 -63 -98 -63 -4 0 -18 17 -32 37 l-25 36 -7 -43 c-11 -61
-50 -115 -109 -149 -106 -60 -202 -48 -282 38 -60 64 -79 103 -85 177 -4 51 0
71 18 108 35 74 130 148 235 183 38 12 169 13 181 0z m2883 -162 c28 -20 51
-39 51 -41 0 -2 -22 -35 -49 -72 -79 -109 -89 -142 -50 -163 30 -16 61 10 126
102 29 41 57 73 63 71 20 -5 120 -75 120 -84 0 -6 -13 -27 -28 -47 -16 -20
-61 -85 -101 -144 l-72 -108 -27 16 c-15 9 -40 27 -56 40 l-30 24 16 40 16 41
-21 -15 c-12 -8 -41 -15 -65 -15 -38 0 -50 6 -83 39 -34 33 -39 45 -39 83 0
38 10 60 77 162 45 68 82 115 89 112 7 -3 35 -21 63 -41z m449 -357 c2 -4 -5
-20 -16 -35 l-20 -28 48 0 c58 0 97 -25 123 -78 29 -59 10 -98 -102 -212 l-94
-96 -54 53 -53 52 75 77 c41 42 75 84 75 92 0 9 -7 23 -16 32 -28 28 -77 2
-156 -83 l-46 -49 -57 57 -57 57 128 126 129 125 45 -41 c25 -23 46 -45 48
-49z m-3912 -69 c74 -35 74 -35 -36 -156 -87 -97 -97 -111 -79 -116 48 -13
108 44 109 103 1 21 11 30 60 52 66 29 70 27 70 -41 0 -84 -109 -223 -196
-249 -93 -27 -208 41 -234 138 -14 54 2 115 48 175 44 57 74 81 128 100 54 19
81 18 130 -6z m4188 -214 c11 -8 36 -15 55 -15 33 0 40 -6 84 -71 27 -39 47
-72 44 -75 -2 -3 -23 -1 -46 5 -45 10 -45 9 -5 -46 13 -17 24 -36 24 -40 0 -8
-84 -73 -94 -73 -2 0 -16 20 -31 45 l-26 45 -45 -30 c-48 -34 -57 -67 -29
-107 14 -20 13 -23 -27 -52 l-42 -31 -33 32 c-38 37 -73 103 -73 139 0 39 35
85 99 130 l61 43 -22 23 c-12 13 -19 25 -17 27 17 18 86 65 94 65 6 0 19 -6
29 -14z m-4517 -192 c27 -16 81 -46 121 -68 39 -22 72 -43 72 -47 0 -17 -74
-128 -84 -125 -6 3 -45 25 -86 51 -76 47 -107 55 -128 34 -31 -31 2 -73 101
-128 32 -18 61 -38 63 -45 4 -11 -62 -135 -72 -135 -3 0 -78 45 -169 100 -90
54 -187 111 -214 124 -27 14 -52 30 -56 36 -5 8 46 106 71 139 3 3 110 -57
173 -98 23 -15 24 -15 12 6 -26 51 -3 135 47 165 40 26 92 22 149 -9z m2435
-68 c159 -18 329 -54 478 -101 110 -34 117 -38 138 -75 12 -21 20 -39 17 -39
-3 0 -56 15 -118 34 -218 66 -511 116 -682 116 -195 0 -593 -75 -779 -146 -16
-6 -16 -3 5 35 23 40 28 43 134 76 185 59 468 111 625 114 30 1 112 -6 182
-14z m2281 -129 c47 -19 86 -63 118 -131 51 -106 35 -199 -42 -255 l-44 -31
-65 130 c-35 72 -68 131 -72 131 -19 0 -29 -42 -19 -73 13 -35 48 -77 66 -77
13 0 25 -52 25 -106 l0 -32 -42 11 c-52 13 -115 73 -149 142 -34 70 -34 175
-1 223 48 67 153 99 225 68z m-5145 -177 c34 -11 62 -25 62 -29 0 -5 -14 -48
-31 -95 -17 -47 -30 -87 -28 -89 2 -2 74 -27 159 -56 85 -29 157 -55 159 -56
1 -2 -9 -39 -23 -82 l-27 -80 -162 54 c-89 30 -162 54 -164 54 -1 0 -14 -39
-29 -87 -14 -49 -28 -91 -30 -95 -6 -9 -134 34 -134 46 0 18 174 536 180 536
4 0 34 -9 68 -21z m3057 -114 c343 -44 701 -139 1065 -282 184 -72 570 -259
728 -353 l102 -61 -14 -32 c-7 -18 -24 -53 -36 -78 l-23 -47 -96 63 c-575 373
-1402 618 -2081 618 -684 0 -1531 -253 -2098 -627 l-84 -55 -34 74 c-19 40
-34 76 -34 79 0 18 322 195 525 289 308 143 614 252 917 326 227 56 357 77
633 105 81 8 414 -3 530 -19z m2352 -190 l21 -65 -41 -25 c-39 -23 -40 -25
-16 -25 45 0 92 -49 113 -116 6 -20 1 -23 -57 -33 -97 -17 -97 -17 -97 28 0
83 -49 101 -164 61 -33 -11 -64 -20 -71 -20 -13 0 -59 136 -50 150 3 6 14 10
23 10 9 0 82 23 162 49 80 27 147 50 150 50 3 1 15 -28 27 -64z m-2472 -856
c185 -16 569 -93 599 -119 21 -20 46 -169 46 -280 0 -149 -25 -255 -86 -370
-43 -79 -46 -90 -45 -153 2 -81 -14 -138 -45 -168 -20 -18 -40 -24 -115 -29
-112 -8 -131 -23 -155 -123 -10 -37 -20 -66 -23 -65 -3 2 -44 23 -90 46 -237
123 -332 7 -137 -165 l48 -42 -46 1 c-40 0 -51 -4 -89 -39 -24 -22 -55 -48
-70 -57 -32 -21 -49 -14 -119 52 -43 40 -52 44 -95 44 l-47 -1 52 45 c192 168
88 283 -145 160 -47 -26 -88 -45 -90 -43 -2 2 -12 35 -23 73 -26 95 -49 114
-142 114 -131 0 -168 41 -168 189 0 73 -3 85 -34 138 -97 163 -125 398 -75
612 12 47 17 55 49 69 54 23 313 78 453 97 239 32 349 35 592 14z"/>
<path d="M3785 4516 c-18 -13 -18 -14 1 -19 10 -3 40 -8 67 -12 52 -7 61 4 25
29 -28 20 -68 20 -93 2z"/>
<path d="M2498 4349 c-30 -28 -31 -30 -9 -23 47 13 91 34 91 44 0 21 -51 9
-82 -21z"/>
<path d="M2559 4287 c-52 -31 -70 -48 -63 -59 13 -21 98 28 107 62 6 24 2 24
-44 -3z"/>
<path d="M1416 3655 c-16 -15 -26 -35 -26 -51 l0 -28 36 35 c20 18 40 42 45
52 15 27 -23 22 -55 -8z"/>
<path d="M5942 2995 c25 -50 34 -61 41 -49 13 22 0 62 -28 90 -41 41 -46 27
-13 -41z"/>
<path d="M3069 1772 c-108 -69 -260 -207 -280 -254 -9 -22 -9 -31 1 -43 20
-24 36 -18 101 40 34 31 95 72 136 92 63 31 87 37 165 42 109 7 123 19 89 74
-24 40 -91 77 -137 77 -17 0 -50 -13 -75 -28z"/>
<path d="M3799 1777 c-51 -27 -88 -81 -72 -106 8 -12 32 -17 100 -21 77 -4 99
-10 165 -42 41 -21 103 -62 137 -93 67 -60 85 -66 101 -35 17 32 -11 71 -113
160 -119 105 -203 160 -243 160 -17 0 -51 -10 -75 -23z"/>
<path d="M3181 1480 c-109 -39 -231 -144 -271 -232 -52 -114 0 -256 113 -313
85 -42 172 -29 321 48 102 53 120 86 119 227 0 234 -104 334 -282 270z"/>
<path d="M3680 1489 c-88 -37 -141 -174 -126 -321 11 -99 39 -145 110 -184
172 -94 300 -95 395 -2 45 44 62 82 68 150 5 51 2 66 -26 122 -60 123 -219
237 -340 243 -31 1 -67 -2 -81 -8z"/>
<path d="M3482 955 c-25 -18 -102 -126 -120 -168 -19 -43 -15 -75 11 -92 21
-13 30 -13 80 0 41 10 64 12 83 5 42 -16 103 -15 120 2 11 11 14 25 8 53 -11
60 -122 215 -154 215 -3 0 -15 -7 -28 -15z"/>
</g>
</svg>
